<?xml version="1.0" encoding="UTF-8"?>
<svg width="394px" height="309px" viewBox="0 0 394 309" version="1.1" xmlns="http://www.w3.org/2000/svg" xmlns:xlink="http://www.w3.org/1999/xlink">
    <!-- Generator: Sketch 52.6 (67491) - http://www.bohemiancoding.com/sketch -->
    <title>obrázek</title>
    <desc>Created with Sketch.</desc>
    <defs>
        <linearGradient x1="0.0418254486%" y1="50.0117741%" x2="100%" y2="50.0117741%" id="linearGradient-1">
            <stop stop-color="#808080" stop-opacity="0.25" offset="0%"></stop>
            <stop stop-color="#808080" stop-opacity="0.12" offset="54%"></stop>
            <stop stop-color="#808080" stop-opacity="0.1" offset="100%"></stop>
        </linearGradient>
    </defs>
    <g id="Page-1" stroke="none" stroke-width="1" fill="none" fill-rule="evenodd">
        <g id="KOŠÍK-_PRÁZDNÝ" transform="translate(-477.000000, -263.000000)">
            <g id="košík" transform="translate(258.000000, 190.000000)">
                <g id="prázdný-košík" transform="translate(219.000000, 73.000000)">
                    <g id="obrázek">
                        <ellipse id="Oval" fill="#3176BB" opacity="0.1" cx="137.5" cy="290" rx="68.5" ry="13"></ellipse>
                        <path d="M228.917589,43.6869373 C203.658971,42.808466 179.602401,34.6120154 156.630796,25.6469024 C133.659191,16.6817894 110.90614,6.75192676 86.2524484,2.00269149 C70.3955624,-1.0523492 52.2594686,-1.48766309 39.4857576,7.04605776 C27.1881825,15.2817259 23.2151798,29.4588402 21.0803738,42.6241439 C19.4724395,52.5304761 18.5279732,62.9584007 22.9302788,72.2333316 C25.9900372,78.6728397 31.4148641,84.0848502 35.1693126,90.2537578 C48.2318274,111.713556 38.9979135,138.177503 24.8465306,159.131395 C18.2118502,168.959293 10.5039128,178.347954 5.37959792,188.799409 C0.255283054,199.250864 -2.1136881,211.267096 2.37057526,221.957778 C6.81190833,232.546494 17.4000776,240.484109 28.8702691,246.072598 C52.1658025,257.426055 79.6060599,260.673261 106.382849,262.516482 C165.63835,266.587255 225.206071,264.826391 284.617682,263.057683 C306.605793,262.406673 328.687571,261.743898 350.316629,258.328057 C362.329303,256.429931 374.728349,253.41803 383.451003,246.147111 C394.519211,236.919241 397.262846,221.295002 389.843712,209.72585 C377.401735,190.313203 343.010675,185.493377 334.303632,164.66498 C329.518857,153.197793 334.432423,140.428585 341.391032,129.79673 C356.31516,106.983929 381.327905,86.9712558 382.643133,60.8994836 C383.548571,42.9927881 371.524189,25.0586404 352.931473,16.5837458 C333.445027,7.70098946 306.418461,8.81868728 292.048524,23.5213157 C277.237576,38.643571 251.221824,44.4673649 228.917589,43.6869373 Z" id="Path" fill="#3176BB" opacity="0.1"></path>
                        <path d="M209,140.973467 L197.03288,132.890462 L203.069185,123.8876 L171.461611,121.362884 L160.103982,130.162203 L145.886435,122.177056 L134.028711,123.605771 L133.888059,120.47434 C133.741285,117.209816 133.413897,113.955959 132.907404,110.727763 C132.958195,109.749191 132.993358,108.625791 132.989451,107.404533 C132.989451,102.257244 132.294006,95.4346398 129.238738,90.8862371 L129.941996,84.5529191 L124.237787,77.8007722 C125.153838,75.9726414 126.19833,74.2120014 127.363381,72.5321405 C127.558731,72.2503118 127.75408,71.9763116 127.965058,71.71014 C135.36881,71.1738826 141.209764,65.0754218 141.209764,57.6187031 C141.209764,57.2742457 141.209764,56.9297884 141.170694,56.5892453 C141.170694,56.4522452 141.143345,56.3113309 141.127717,56.1743308 C141.850511,56.5657596 142.581119,56.9571884 143.311726,57.3486172 C143.448471,57.5443316 143.604751,57.740046 143.776659,57.970989 L143.811822,58.0140462 L144.030613,58.284132 L144.100939,58.3663321 C144.179079,58.460275 144.261126,58.5503036 144.343173,58.6442465 L144.397871,58.7068752 C144.604941,58.9378181 144.823733,59.1726754 145.058152,59.4036184 C145.08606,59.4263698 145.112183,59.4512333 145.136292,59.4779899 L145.429317,59.7519901 L145.511364,59.8263615 C145.761411,60.0494759 146.027087,60.2647618 146.292762,60.4683048 L146.378716,60.5309334 L146.714717,60.7618764 L146.824113,60.8323336 C146.953044,60.9106193 147.085882,60.9928194 147.214812,61.0671908 L147.261696,61.0945909 C147.414069,61.1767909 147.570349,61.2550767 147.726629,61.3294481 L147.804768,61.3607624 C147.937606,61.418172 148.067839,61.472972 148.195468,61.5251625 L148.316585,61.5682197 C148.453329,61.6151912 148.586167,61.6582483 148.726819,61.6973912 L148.812773,61.7208769 C148.98468,61.7639341 149.156588,61.7991627 149.332403,61.8265627 L149.351938,61.8265627 C149.517488,61.8533931 149.684478,61.8703847 149.852033,61.8774485 L149.965336,61.8774485 C150.115001,61.8852972 150.264974,61.8852972 150.41464,61.8774485 L150.512315,61.8774485 C150.699722,61.8666356 150.8863,61.8444136 151.071015,61.8109056 C151.945182,61.6957531 152.784528,61.3940921 153.53242,60.9262765 C153.722834,60.7987068 153.891663,60.6414551 154.032515,60.4604762 C154.813914,59.4349327 153.954375,58.3115321 153.954375,58.3115321 C153.64963,57.5834745 151.672692,57.0707028 151.672692,57.0707028 C151.672692,57.0707028 145.421503,54.4559583 145.421503,52.3735571 C145.421503,50.2911559 143.858705,39.4877209 127.726731,37.0178051 C127.726731,37.0178051 117.232548,36.4267476 114.282768,42.0554938 L114.220256,42.7130942 C113.352904,43.2571803 112.634017,44.3492666 111.778386,44.6702382 C111.408722,44.7497834 111.052223,44.8815784 110.719591,45.061667 L110.719591,44.9872956 C110.620815,45.0738473 110.539858,45.1788888 110.481264,45.2965243 C110.297472,45.6629063 110.187293,46.061886 110.156984,46.4708107 C110.068963,46.9703384 109.895834,47.450975 109.645168,47.8916973 C109.575282,48.0169299 109.49696,48.1372466 109.410748,48.2518118 L109.344329,48.3574976 C109.797923,48.3929123 110.253392,48.319096 110.672707,48.1422117 C110.606631,48.678115 110.475425,49.2039184 110.282008,49.707927 C110.789216,49.724354 111.259403,49.4429381 111.485361,48.987698 L111.485361,48.9563836 L111.536152,48.8859265 C111.6344,48.7047246 111.715499,48.5147048 111.778386,48.3183547 L111.735409,48.3653262 C111.813549,48.1108974 111.883875,47.8525544 111.969828,47.60204 C112.009209,47.4609307 112.074097,47.3282579 112.161271,47.2106112 C112.372748,46.9970219 112.672922,46.8967769 112.970019,46.9405253 L112.809832,50.334213 L112.880158,50.334213 C112.786052,50.5810733 112.671027,50.8194101 112.536342,51.0466135 C111.981549,51.9468997 110.973545,52.5614429 110.602381,53.5478435 C110.442347,54.0235949 110.381185,54.527125 110.422659,55.0274444 C110.422659,55.321016 110.457822,55.6185019 110.481264,55.9120735 L110.481264,55.8885878 C110.535962,56.6714454 110.55159,57.4151601 110.129635,58.0453605 C109.840517,58.4759322 109.375585,58.8008181 109.215398,59.2901041 C109.171087,59.4264427 109.151245,59.5695706 109.156794,59.7128472 C109.18814,60.1417984 109.277516,60.5644935 109.422469,60.9693336 C109.424163,60.9615971 109.424163,60.9535845 109.422469,60.9458479 C109.519912,61.2436508 109.542723,61.5608995 109.488888,61.8696199 C109.313073,62.6524775 108.363674,63.3061636 108.410558,64.0537926 C108.407877,64.1521194 108.422423,64.2501557 108.453535,64.3434499 C108.636202,64.7086246 108.952512,64.9890671 109.336515,65.1263075 C109.938885,65.4694866 110.630703,65.6222982 111.321268,65.5647078 C111.580093,65.5178576 111.830363,65.432079 112.063596,65.3102791 C111.790107,65.9404794 111.508803,66.5628512 111.223593,67.1539087 C111.180616,67.2478517 111.133732,67.3417946 111.086848,67.4357375 C111.086848,67.4357375 108.672326,65.8191365 107.300972,69.114967 C106.900642,69.7998749 106.61429,70.5455158 106.453154,71.3226255 C106.384451,71.6334831 106.28768,71.9374391 106.164037,72.2307403 C105.555224,73.2633486 104.644049,74.0832969 103.554166,74.5793132 C100.756759,75.8631996 89.4577347,89.9820366 89.2584781,93.6379816 C89.1606915,95.0651091 88.91985,96.4787608 88.5395914,97.8575841 C87.6501406,101.104645 87.4216084,104.497763 87.8675886,107.835104 C88.0071971,108.913676 88.2385514,109.978321 88.5591264,111.017421 C89.7585732,114.669451 90.5595068,121.484227 90.5595068,121.484227 L91.8566285,133.313205 C91.8084758,134.945824 91.878988,136.579788 92.0676061,138.202151 C90.7431354,139.71698 85.425718,146.030727 87.4573543,147.749099 C89.0201515,149.103443 91.7550466,148.880329 93.2904949,148.602414 C91.9972802,151.808216 89.9617368,157.382162 89.6921543,161.210336 C89.301455,166.874311 90.3602501,174.378001 92.0363501,177.258917 C93.7124501,180.139833 99.2994501,187.530009 99.2994501,187.530009 C99.2994501,187.530009 99.0376816,197.668015 101.034155,201.35136 C103.030628,205.034705 103.835469,212.675395 103.835469,212.675395 C103.835469,212.675395 105.699105,219.126142 104.765333,221.4982 C103.831562,223.870259 106.496131,225.84306 103.698724,227.420518 C100.901317,228.997976 97.3225117,264.551455 97.3225117,264.551455 C97.3225117,264.551455 95.8808313,287.853211 97.3225117,289.039241 C97.3996577,289.095428 97.4820957,289.143935 97.5686522,289.184069 L97.5686522,297.012645 C97.5686522,297.012645 96.568462,298.656646 100.635642,298.989361 C103.421328,299.212475 111.317361,299.717418 116.001845,300.01099 L119.631442,300.238019 C119.631442,300.238019 128.226826,301.952477 132.024424,300.238019 C135.822021,298.52356 142.55377,298.562703 141.55358,294.033872 C141.420955,293.417557 141.243361,292.811825 141.022229,292.221557 C139.924364,289.411098 138.060728,289.090126 134.626481,288.307269 C134.427224,288.264211 134.235782,288.225069 134.059967,288.193754 C130.442091,287.563554 129.254366,289.250612 127.226636,287.054696 C125.464582,285.156267 119.85414,283.030808 117.943621,282.357551 C117.990505,282.216636 118.04911,282.079636 118.095994,281.934808 C117.554992,281.842853 117.051817,281.59691 116.646499,281.226322 L121.823265,281.555122 L124.905882,281.746922 C124.905882,281.746922 132.211959,283.206951 135.454764,281.746922 C138.697568,280.286892 144.401778,280.326035 143.550053,276.47829 C143.437861,275.953966 143.287696,275.438525 143.100749,274.936061 C142.166977,272.548345 140.580738,272.286088 137.662215,271.624573 C137.494214,271.589344 137.337934,271.554116 137.181654,271.526716 C134.106851,270.990458 133.098847,272.423088 131.375863,270.559887 C129.899019,268.970686 125.237977,267.189685 123.561877,266.58297 C123.561877,265.713998 122.389779,264.477083 121.651357,263.236254 C120.784005,261.787967 122.385872,256.718964 122.385872,256.718964 L123.300108,235.687495 C123.648262,235.532131 124.016538,235.426713 124.394066,235.374352 C124.394066,235.374352 128.527665,231.420921 127.593894,227.209147 C127.403636,225.93528 127.304406,224.649429 127.296962,223.361402 C128.656596,222.097086 130.528045,220.229971 131.059396,219.07917 C131.926749,217.204226 131.059396,208.119164 131.059396,208.119164 L131.059396,173.379858 L137.974774,174.080515 L144.249405,174.726373 L146.159924,174.922087 L152.434555,175.556202 L166.855266,177.016231 L179.849925,174.55023 L185.472088,173.485543 L197.03288,171.293542 L197.03288,142.954097 L209,140.973467 Z M113.821743,47.0657825 L113.016903,46.9796682 C113.282578,46.9914111 113.563882,47.0422968 113.821743,47.0657825 Z" id="Shape" fill="url(#linearGradient-1)" fill-rule="nonzero"></path>
                        <path d="M180.672268,159.697271 C176.846551,165.107372 163.093094,162.241644 163.093094,162.241644 L152.434644,152.385507 L151,151.05094 L153.406377,146 C153.406377,146 154.17152,146.207935 155.483741,146.578438 C162.373859,148.555715 183.901174,155.149157 180.672268,159.697271 Z" id="Path" fill="#EFB7B9"></path>
                        <path d="M155,145.634103 C154.579487,147.407934 153.42735,150.064535 152.282051,152 L151,150.537004 L153.150427,145 C153.150427,145 153.841026,145.227946 155,145.634103 Z" id="Path" fill="#000000" opacity="0.1"></path>
                        <path d="M117.500608,87.1641247 C117.500608,87.1641247 107.528131,91.6133049 108.017434,102.538991 C108.369506,109.577836 109.131956,116.589831 110.300852,123.538809 C110.300852,123.538809 108.262086,139.980073 116.751119,144.218318 C125.240152,148.456562 133.096196,151.940907 133.096196,151.940907 C133.096196,151.940907 146.377299,153.378395 148.027729,153.97214 C149.678158,154.565884 154.835265,145.487838 153.883841,144.073788 C152.932417,142.659738 140.742539,139.69492 139.189193,137.335565 C137.635848,134.97621 134.043737,133.519192 134.043737,133.519192 C134.043737,133.519192 130.335124,131.261399 130.082706,129.222354 C129.830287,127.183309 130.808895,125.663791 131.05743,124.769268 C131.305965,123.874744 131.93507,115.2381 131.93507,115.2381 C131.93507,115.2381 136.121336,84.496179 117.500608,87.1641247 Z" id="Path" fill="#DCE6F2"></path>
                        <path d="M123,124 C123,124 109.810384,126.265496 111.08704,131 C111.08704,131 115.875436,125.889194 123,124 Z" id="Path" fill="#000000" opacity="0.1"></path>
                        <path d="M124,125 C124,125 116.768593,130.698193 118.183515,130.990131 C119.598437,131.282069 124,125 124,125 Z" id="Path" fill="#000000" opacity="0.1"></path>
                        <path d="M127.933231,128 C127.933231,128 126.338255,131.206639 127.318597,130.989445 C128.298938,130.77225 127.933231,128 127.933231,128 Z" id="Path" fill="#000000" opacity="0.1"></path>
                        <path d="M155.918871,147.03135 L155.08232,146.793021 C155.320776,146.011616 155.387231,145.378677 155.191776,145.08565 C154.234042,143.671307 141.971139,140.70978 140.411401,138.346029 C138.851663,135.982278 135.23182,134.528864 135.23182,134.528864 C135.23182,134.528864 131.498613,132.270603 131.24452,130.231135 C130.990428,128.191667 131.975525,126.671833 132.225709,125.777124 C132.475892,124.882415 133.10917,116.240072 133.10917,116.240072 C133.10917,116.240072 137.311471,85.4956792 118.567252,88.1641784 C118.567252,88.1641784 108.528637,92.6181889 109.017277,103.546142 C109.371818,110.586617 110.140638,117.600135 111.319747,124.550318 C111.319747,124.550318 109.267461,140.994993 117.812792,145.234117 C126.358123,149.473241 134.266268,152.958309 134.266268,152.958309 C134.266268,152.958309 147.631542,154.392188 149.296826,154.989963 C149.926194,155.21657 151.063747,154.048369 152.177846,152.442581 L152.811123,153.032543 L163.701925,163.214254 C163.701925,163.214254 177.755203,166.179687 181.664321,160.588732 C184.967525,155.884672 162.974829,149.070817 155.918871,147.03135 Z" id="Path" fill="#000000" opacity="0.1"></path>
                        <path d="M112.318549,46.1712026 C111.94151,46.2434477 111.580387,46.3801803 111.251709,46.5751422 C110.866567,46.8884785 110.866567,47.4245479 110.770282,47.8926648 C110.657175,48.5438494 110.393704,49.1610748 110,49.6971801 C110.438258,49.7286953 110.877876,49.6575237 111.28252,49.4895476 C111.216597,50.006256 111.087281,50.513275 110.897379,50.9996022 C111.387542,51.0118236 111.83958,50.7415414 112.052802,50.3087523 C112.25659,49.88335 112.417819,49.439583 112.534228,48.9836793 C112.570404,48.8473214 112.633183,48.7191226 112.719096,48.6061657 C113.073426,48.1946758 113.732017,48.3796575 114.278918,48.4325094 C115.205774,48.5091116 116.102144,48.0871438 116.620575,47.3301695 C117.202138,46.4656632 117.236801,44.2534332 115.850293,44.0193747 C114.402163,43.7853162 113.500933,45.740837 112.318549,46.1712026 Z" id="Path" fill="#965D7B"></path>
                        <g id="Group" opacity="0.1" transform="translate(109.000000, 47.000000)" fill="#000000">
                            <path d="M1.37684211,0.57 C1.41473684,0.406666667 1.44,0.236666667 1.48631579,0.0733333333 C1.08631579,0.35 1.06526316,0.82 0.96,1.23666667 C0.906964834,1.47707173 0.823745137,1.71268456 0.711578947,1.94 C1.04310947,1.52167017 1.26903336,1.05641709 1.37684211,0.57 Z" id="Path"></path>
                            <path d="M1.51157895,3.32333333 C1.72125077,2.89443696 1.86268843,2.44655101 1.93263158,1.99 C1.51104834,2.13048036 1.05461394,2.1931741 0.597894737,2.17333333 C0.464950139,2.40777181 0.302740438,2.63110401 0.113684211,2.84 C0.591120734,2.8692469 1.07046074,2.80752465 1.51157895,2.66 C1.4416358,3.11655101 1.30019814,3.56443696 1.09052632,3.99333333 C1.62610683,4.0032766 2.11975964,3.76488343 2.35368421,3.38333333 C2.4585835,3.23182401 2.54325138,3.07207219 2.60631579,2.90666667 C2.35524198,3.18445773 1.94243109,3.34157726 1.51157895,3.32333333 Z" id="Path"></path>
                            <path d="M5.20842105,1.05666667 C4.61052632,1.01 3.88631579,0.846666667 3.49894737,1.21 C3.40673297,1.31055047 3.33826154,1.42348078 3.29684211,1.54333333 C3.25894737,1.63 3.22526316,1.72 3.19578947,1.81 C3.59578947,1.56 4.24421053,1.69333333 4.78736842,1.73666667 C5.8001425,1.80213879 6.77877754,1.43005359 7.34736842,0.763333333 C7.47498995,0.601474235 7.57015442,0.424934676 7.62947368,0.24 C7.04393604,0.813722444 6.13669773,1.11975102 5.20842105,1.05666667 Z" id="Path"></path>
                        </g>
                        <polygon id="Path" fill="#DCE6F2" points="124.025465 78 130 85.4654003 129.220372 93 122 81.256445"></polygon>
                        <polygon id="Path" fill="#000000" opacity="0.1" points="130 85.4654003 129.267026 92.5522388 129.21999 93 122.701617 82.4002714 122 81.256445 122.203822 80.92673 124.022538 78 124.426262 78.504749"></polygon>
                        <path d="M132.958896,68.4773218 C130.920162,69.0526998 128.972301,71.0276458 127.277307,73.4263499 C126.131664,75.0813801 125.107079,76.8144766 124.211304,78.612527 C123.654208,79.7088553 123.164279,80.762419 122.757323,81.6799136 L122.472848,82.3330454 C121.785368,83.9308855 121.402117,85 121.402117,85 C121.402117,85 105.795528,73.4535637 108.264925,72.6760259 C109.094642,72.4155508 110.185128,70.6660907 111.263761,68.4617711 L111.398096,68.1818575 C112.081625,66.7667387 112.753301,65.1883369 113.349907,63.7032397 C114.570777,60.6514039 115.475564,58 115.475564,58 C115.475564,58 139.181777,66.7278618 132.958896,68.4773218 Z" id="Path" fill="#EFB7B9"></path>
                        <path d="M142,58 C142,58 145.388387,63.705062 149.939674,62.927099 C154.490961,62.149136 152.618432,59.8636536 152.618432,59.8636536 L142,58 Z" id="Path" fill="#444053"></path>
                        <path d="M134.936961,281.353376 C131.75412,282.80828 124.557276,281.353376 124.557276,281.353376 L121.524124,281.16412 C117.584965,280.911779 110.990812,280.485954 108.65883,280.296698 C105.255396,280.016757 106.090498,278.620996 106.090498,278.620996 L106.090498,270.187284 L122.603453,266 C122.603453,266 129.13064,268.235584 130.919019,270.187284 C132.616796,272.0483 133.609464,270.617053 136.638678,271.153277 C136.788366,271.180877 136.945932,271.21242 137.111377,271.251848 C139.986963,271.910301 141.54687,272.170527 142.468633,274.555939 C142.653861,275.057092 142.802624,275.571001 142.913758,276.093642 C143.764617,279.933958 138.115862,279.906358 134.936961,281.353376 Z" id="Path" fill="#A36468"></path>
                        <path d="M143,274.398976 C142.399669,274.768648 141.768618,275.0875 141.113626,275.352107 C138.915521,276.340685 136.825323,277.545884 134.603238,278.479323 C132.381154,279.412761 129.987218,280.078377 127.581292,279.901142 C126.322377,279.810555 125.035486,279.507286 123.832523,279.861757 C123.088566,280.14484 122.387871,280.527877 121.750318,281 C117.753764,280.747932 111.063531,280.322568 108.69757,280.133517 C105.244547,279.853879 106.091817,278.45963 106.091817,278.45963 L106.091817,277.47499 C106.21571,277.47499 106.355589,277.439543 106.515451,277.427727 C107.342526,277.414701 108.166145,277.535785 108.95335,277.786136 C110.687855,278.250886 112.414366,278.707759 114.148871,279.164632 C114.437187,278.092453 115.159628,277.183996 116.147148,276.651831 C117.13715,276.13392 118.248285,275.882583 119.368372,275.923198 C122.058053,275.958645 124.603858,277.215045 127.289543,277.341079 C128.040395,277.409115 128.796325,277.284276 129.483652,276.978732 C129.851335,276.797558 130.175056,276.533675 130.534746,276.332808 C131.11039,276.058385 131.718584,275.855949 132.345185,275.730209 C134.106377,275.298166 135.835578,274.748115 137.520723,274.083891 C138.00031,273.898779 138.559828,273.564002 138.495883,273.059866 C138.411955,272.390311 137.344875,272.31154 137.065116,271.697125 C136.965048,271.47252 136.976868,271.214793 137.097089,271 C137.248958,271.02757 137.40882,271.059078 137.576675,271.098464 C140.48217,271.756203 142.064806,272.016148 143,274.398976 Z" id="Path" fill="#000000" opacity="0.1"></path>
                        <path d="M131.624631,299.273015 C127.928402,300.908731 119.563251,299.273015 119.563251,299.273015 L116.042107,299.073262 C111.482127,298.790592 103.801752,298.319475 101.089887,298.097108 C97.1329763,297.780518 98.1056682,296.212642 98.1056682,296.212642 L98.1056682,286.711165 L117.298825,282 C117.298825,282 124.885822,284.513878 126.963491,286.711165 C128.936111,288.802922 130.076106,287.193588 133.612813,287.796617 C133.787898,287.826769 133.970764,287.864458 134.161411,287.905916 C137.503581,288.659703 139.316679,288.942373 140.38664,291.625852 C140.603263,292.189243 140.776233,292.767491 140.904112,293.355792 C141.869022,297.674988 135.32086,297.641067 131.624631,299.273015 Z" id="Path" fill="#A36468"></path>
                        <path d="M140,291.723134 C139.302424,292.129552 138.56951,292.480634 137.808974,292.772682 C135.254751,293.859056 132.82291,295.184801 130.241053,296.212253 C127.659196,297.239705 124.876001,297.968865 122.077015,297.777369 C120.616331,297.677938 119.120117,297.335454 117.734441,297.733177 C116.866195,298.048603 116.049097,298.474948 115.306548,299 C110.679733,298.723803 102.886788,298.263475 100.135175,298.0462 C96.1202684,297.73686 97.1072169,296.204888 97.1072169,296.204888 L97.1072169,295.122196 C97.2706766,295.097296 97.4353765,295.080089 97.6006912,295.070639 C98.5624308,295.054253 99.520379,295.187423 100.435207,295.46468 L106.471385,296.981922 C106.811213,295.799139 107.657857,294.798934 108.812426,294.216271 C109.963069,293.644082 111.255906,293.367046 112.558883,293.413458 C115.685536,293.453967 118.642434,294.834951 121.765139,294.974891 C122.634793,295.048892 123.510242,294.913207 124.307518,294.58085 C124.737828,294.378306 125.097077,294.087379 125.531335,293.870104 C126.199006,293.565105 126.906312,293.342284 127.635509,293.207231 C129.6714,292.727995 131.670784,292.122703 133.620365,291.39538 C134.177004,291.189153 134.82839,290.820891 134.753382,290.268497 C134.654687,289.531972 133.415079,289.443589 133.087413,288.765986 C132.975537,288.518256 132.990054,288.236576 133.12689,288 C133.304541,288.029461 133.490088,288.066287 133.683529,288.106796 C137.074685,288.81386 138.914357,289.101105 140,291.723134 Z" id="Path" fill="#000000" opacity="0.1"></path>
                        <path d="M122.888449,231 L121.838337,255.545883 C121.838337,255.545883 120.265136,260.558196 121.118598,261.99196 C121.972059,263.425724 123.411538,264.855582 122.888449,265.703338 C122.365359,266.551095 116.072556,275.716246 114.039193,272.200204 C112.005831,268.684161 110,253.447977 110,253.447977 L111.876042,234.629337 L122.888449,231 Z" id="Path" fill="#444053"></path>
                        <path d="M128.414521,171 L131.58757,174.876122 L131.58757,208.589001 C131.58757,208.589001 132.515537,217.575977 131.58757,219.431983 C130.659603,221.287988 125.955621,225 125.955621,225 L122,206.439942 L122.855269,186.805355 L128.414521,171 Z" id="Path" fill="#444053"></path>
                        <path d="M122.888449,231 L121.838337,255.545883 C121.838337,255.545883 120.265136,260.558196 121.118598,261.99196 C121.972059,263.425724 123.411538,264.855582 122.888449,265.703338 C122.365359,266.551095 116.072556,275.716246 114.039193,272.200204 C112.005831,268.684161 110,253.447977 110,253.447977 L111.876042,234.629337 L122.888449,231 Z" id="Path" fill="#000000" opacity="0.1"></path>
                        <path d="M128.414521,171 L131.58757,174.876122 L131.58757,208.589001 C131.58757,208.589001 132.515537,217.575977 131.58757,219.431983 C130.659603,221.287988 125.955621,225 125.955621,225 L122,206.439942 L122.855269,186.805355 L128.414521,171 Z" id="Path" fill="#000000" opacity="0.1"></path>
                        <path d="M131,156.406984 L131,174.699648 L127.701777,188.93947 C127.701777,188.93947 126.644603,223.302397 127.567155,227.480666 C128.489708,231.658935 124.399594,235.582431 124.399594,235.582431 C124.399594,235.582431 122.023923,235.845043 122.023923,237.671565 C122.023923,239.498088 118.064471,244.726803 118.064471,244.726803 L118.195133,254.917702 C118.195133,254.917702 119.913535,273.994282 117.272581,277.651246 C114.631626,281.308211 118.195133,281.833435 118.195133,281.833435 C114.89691,292.545638 99.0591025,290.064546 97.6297404,288.888673 C96.2003783,287.7128 97.6297404,264.587298 97.6297404,264.587298 C97.6297404,264.587298 101.16949,229.311108 103.941107,227.743278 C106.712723,226.175447 104.075728,224.215659 104.99828,221.863913 C105.920832,219.512167 104.075728,213.111498 104.075728,213.111498 C104.075728,213.111498 103.283838,205.531037 101.304112,201.874072 C99.3243857,198.217107 99.5857096,188.155554 99.5857096,188.155554 C99.5857096,188.155554 94.0424771,180.837705 92.3953451,177.964655 C90.7482132,175.091605 89.6870801,167.64441 90.0830253,162.023737 C90.352268,158.225667 92.3676289,152.695145 93.6465319,149.512449 C94.2602469,147.987733 94.7037055,147 94.7037055,147 L95.0798534,147.097989 L116.706379,152.702984 L131,156.406984 Z" id="Path" fill="#444053"></path>
                        <path d="M131.992,68.8759724 C130.017811,69.4716955 128.131619,71.5164749 126.490288,73.9999964 L126.061782,73.9999964 C121.164793,74.0036395 116.640245,71.2504399 114.201347,66.7828911 C113.700621,65.8734389 113.29769,64.9081646 113,63.9049043 C114.182218,60.7451566 115.058359,58 115.058359,58 C115.058359,58 138.017866,67.064652 131.992,68.8759724 Z" id="Path" fill="#000000" opacity="0.1"></path>
                        <path d="M139.999981,58.9936127 C140.009492,64.8584831 136.353661,70.1060785 130.844453,72.1354977 C125.335245,74.1649168 119.143479,72.5448663 115.338024,68.0783028 C111.532568,63.6117393 110.922159,57.2478995 113.809339,52.1409364 C114.233739,51.3837331 114.729403,50.6686375 115.289611,50.005342 C116.213088,48.9064781 117.298497,47.9542634 118.508617,47.181351 C122.666585,44.5422596 127.907318,44.2802081 132.308396,46.4913229 C136.709474,48.7024378 139.623066,53.0612471 139.980401,57.9688403 C139.988233,58.3130386 139.999981,58.6533257 139.999981,58.9936127 Z" id="Path" fill="#EFB7B9"></path>
                        <path d="M129,92.5771941 L128.952792,93 L122.410518,83.0064061 C121.725998,84.5861627 121.344398,85.6431775 121.344398,85.6431775 C121.344398,85.6431775 105.805022,74.2120436 108.263784,73.4433056 C109.089928,73.1857783 110.175717,71.4561179 111.249705,69.2767457 L111.383461,69 C112.524327,72.3209481 119.15315,78.9590006 121.910897,81.6188341 C122.229553,81.9263293 122.493132,82.1800128 122.697701,82.3645099 L123.118641,82.7488789 L123.338946,82.9641256 C124.342121,83.975016 128.575126,88.4336963 129,92.5771941 Z" id="Path" fill="#000000" opacity="0.1"></path>
                        <path d="M134,127.200888 L133.289203,149.949062 L133.164228,154 C133.164228,154 124.744018,153.223214 116.886196,152.36875 C110.559322,151.681294 104.595657,150.939464 103.67787,150.504464 C102.506227,149.95683 99.9950046,149.533481 98.0149273,149.26549 C96.48398,149.059642 95.2810929,148.950892 95.2810929,148.950892 C95.2810929,148.950892 94.8319629,149.082946 94.1406933,149.207231 C92.6331789,149.479106 89.9852649,149.70049 88.4426012,148.368303 C86.4703349,146.663258 91.652904,140.46839 92.9456171,138.980846 L93.230717,138.658479 L92.7425323,134.172541 L91.473252,122.540173 C91.473252,122.540173 90.6921564,115.840395 89.5205131,112.247761 C89.2072761,111.226325 88.9812586,110.180428 88.8448654,109.121198 C88.4095417,105.839941 88.6325458,102.505416 89.5009857,99.3103922 C89.8720254,97.9527737 90.1074942,96.5620665 90.2039717,95.1584719 C90.3992456,91.5658373 101.43222,77.6807902 104.166055,76.4185132 C105.395857,75.8481843 106.385446,74.8668044 106.962377,73.6453878 C107.152843,73.2613433 107.295785,72.8557498 107.388074,72.4374858 C108.559717,67.3883777 111.523975,69.3924852 111.523975,69.3924852 C112.238678,73.3424413 123.302896,83.7979788 123.302896,83.7979788 L123.521603,84.0154789 C124.619042,85.1340505 129.508701,90.3851228 129.161113,94.8671772 C129.091657,96.5353617 129.342161,98.2014463 129.899248,99.7764637 C132.149789,106.823746 133.443531,114.138449 133.746144,121.526468 L134,127.200888 Z" id="Path" fill="#DCE6F2"></path>
                        <path d="M117.918595,100 C117.918595,100 115.2968,107.104651 113.330453,108.253932 C111.364107,109.403214 118.854951,110.677872 117.918595,100 Z" id="Path" fill="#000000" opacity="0.1"></path>
                        <path d="M120,112 C120,112 114,113.057617 114,114.644043 C114,116.230469 120,112 120,112 Z" id="Path" fill="#000000" opacity="0.1"></path>
                        <path d="M126,120 C126,120 116.861512,139.399767 114.306665,139.987638 C111.751819,140.57551 126,120 126,120 Z" id="Path" fill="#000000" opacity="0.1"></path>
                        <path d="M123,84.7996962 L115.297125,88 L106,74.5786304 C106.195352,74.2001049 106.34196,73.80034 106.436616,73.3880868 C107.638313,68.4115378 110.678605,70.3868449 110.678605,70.3868449 C111.41164,74.2800374 122.759661,84.5853218 122.759661,84.5853218 L123,84.7996962 Z" id="Path" fill="#000000" opacity="0.1"></path>
                        <path d="M123,83.7996962 L115.297125,87 L106,73.5786304 C106.195352,73.2001049 106.34196,72.80034 106.436616,72.3880868 C107.638313,67.4115378 110.678605,69.3868449 110.678605,69.3868449 C111.41164,73.2800374 122.759661,83.5853218 122.759661,83.5853218 L123,83.7996962 Z" id="Path" fill="#DCE6F2"></path>
                        <path d="M131.875725,153.860592 C131.875725,153.860592 123.502713,153.073399 115.688938,152.207487 L129.708684,155.926973 L129.708684,160.256534 C129.095077,160.819376 128.563026,161.110638 128.217387,160.961071 C126.601815,160.272277 113.41704,158.107497 113.41704,158.107497 C113.41704,158.107497 105.758607,154.171533 97.4943359,149.448377 C97.2937375,149.335749 97.0992761,149.212243 96.9117979,149.078396 C95.9481829,148.415319 95.1178627,147.572464 94.4651385,146.594803 C92.9388891,144.355239 92.1932406,141.478049 91.8709029,138.655963 C91.6896899,137.038628 91.6222042,135.410279 91.6689564,133.78324 C91.7089874,131.938337 91.8750848,130.09846 92.1660555,128.276826 C91.3668068,121.221375 90.9777762,114.124381 91.0009796,107.022621 C91.0980692,96.0019217 101.292483,92.0659577 101.292483,92.0659577 C120.030787,90.3931731 114.220942,121.093692 114.220942,121.093692 C114.220942,121.093692 113.137421,129.752813 112.842269,130.638405 C112.547116,131.523997 111.486897,132.999983 111.63059,135.066364 C111.774283,137.132745 115.354949,139.604531 115.354949,139.604531 C115.354949,139.604531 118.850177,141.265507 120.290987,143.725485 C121.339556,145.539964 128.151366,147.999942 132,149.755382 L131.875725,153.860592 Z" id="Path" fill="#000000" opacity="0.1"></path>
                        <path d="M138.999719,50.3770554 C139.007033,51.0435854 138.871491,51.7037117 138.602553,52.3113573 C138.398946,52.8072033 138.162759,53.2884981 137.895599,53.7519671 C137.477593,54.6045106 136.884279,55.3553274 136.156013,55.9533485 C135.23856,56.6210468 134.078837,56.807193 132.978688,57.078319 C131.878539,57.3494451 130.734702,57.7824373 130.10718,58.7374483 C129.767089,59.3513744 129.539638,60.0233024 129.43597,60.7203102 C129.330758,61.4167178 129.057852,62.07572 128.641639,62.6384255 C128.195877,63.2035091 127.431447,63.3899044 126.782904,63.0916511 C126.450744,62.8634932 126.198862,62.5331251 126.064034,62.14878 C125.611265,61.1087892 125.496087,59.955492 125.313391,58.8345681 C125.130695,57.7136442 124.872537,56.560347 124.197356,55.6579425 C123.522174,54.755538 122.326705,54.1606795 121.266273,54.5127386 C120.549094,54.7940494 119.975417,55.3610236 119.677611,56.0828415 C119.384123,56.7980041 119.182548,57.5488032 119.07789,58.316596 C118.585405,61.0629271 118.004219,63.7930716 117.334333,66.5070294 C117.313896,66.6182813 117.269096,66.7234045 117.203269,66.8145753 C117.097681,66.9218044 116.955172,66.9827881 116.806103,66.9845349 C115.916452,67.1059346 115.062546,66.4706095 114.164951,66.5394027 C114.072461,66.5456794 113.980729,66.5605795 113.890907,66.5839159 C110.918133,61.3198465 111.490919,54.7240084 115.324675,50.0735561 L115.396165,50.0533228 C115.993252,49.8373605 116.535853,49.4890666 116.984828,49.0335653 C117.558159,48.4490011 118.089107,47.8228232 118.57349,47.1599632 L118.891223,46.7552975 C119.804131,45.6347491 120.843994,44.6282243 121.989115,43.7567248 C122.301696,43.4958044 122.660258,43.2980304 123.045575,43.1740062 C123.375327,43.1085527 123.713271,43.0976217 124.046433,43.141633 C125.418039,43.309398 126.800845,43.3621817 128.180927,43.2994526 C129.142562,43.1454343 130.111788,43.0454655 131.084208,43 C133.598266,43.0728398 135.742961,44.8816954 137.331623,46.8645573 C138.185529,47.8802681 138.948087,49.0497519 138.999719,50.3770554 Z" id="Path" fill="#000000" opacity="0.1"></path>
                        <path d="M113.001957,52.691291 C112.462814,53.581188 111.489254,54.1861619 111.124654,55.1619262 C110.58939,56.578736 111.493133,58.3429178 110.663086,59.6075083 C110.387697,60.0329416 109.933886,60.3490892 109.778737,60.8369713 C109.514984,61.6605164 110.236426,62.5387043 110.050248,63.3856677 C109.864069,64.2326311 108.754753,64.9468906 109.049537,65.7743387 C109.223739,66.1352044 109.529309,66.4147383 109.902856,66.5549501 C110.490581,66.8942126 111.167041,67.0453289 111.842218,66.9881895 C112.90111,66.8125519 113.688492,65.7665326 114.762898,65.6884714 C115.635611,65.6260225 116.469537,66.2348994 117.338372,66.1217108 C117.483985,66.1166125 117.622398,66.0567216 117.726244,65.9538793 C117.792158,65.8668945 117.836084,65.7650977 117.854242,65.657247 C118.505868,63.0421987 119.074748,60.4089361 119.560881,57.7574592 C119.659936,57.0166994 119.855556,56.2923024 120.14269,55.6029717 C120.435779,54.9083179 120.995252,54.3622241 121.69418,54.0885855 C122.729799,53.7529226 123.893417,54.3227689 124.556679,55.1931507 C125.219941,56.0635324 125.472058,57.1759037 125.650479,58.2570505 C125.8289,59.3381974 125.941384,60.4505687 126.379679,61.4536544 C126.512857,61.82568 126.760059,62.1455043 127.085607,62.3669698 C127.667416,62.7065357 128.450919,62.4372248 128.896972,61.9298274 C129.305605,61.3868744 129.572329,60.7494297 129.672717,60.0758752 C129.773908,59.4048206 129.996055,58.7580082 130.328221,58.1672802 C130.94106,57.2461587 132.062011,56.8285316 133.132539,56.5670268 C134.203068,56.305522 135.331777,56.1220783 136.235519,55.4780738 C136.945794,54.9018831 137.525098,54.1792001 137.934401,53.3587138 C138.508452,52.351725 139.043716,51.258869 138.997172,50.099661 C138.946748,48.8350705 138.202033,47.707087 137.406894,46.7235166 C135.855404,44.8110185 133.757014,43.066352 131.301781,43 C130.351835,43.0399713 129.405068,43.1364149 128.466433,43.2888262 C127.118543,43.3498201 125.767946,43.2975984 124.428681,43.1327039 C124.103022,43.0935056 123.773292,43.1053556 123.451242,43.1678315 C123.074502,43.2836093 122.724889,43.4747797 122.42338,43.7298717 C121.303962,44.5690463 120.287134,45.538538 119.394096,46.618134 C118.818284,47.386412 118.193805,48.1164996 117.52455,48.803846 C117.085902,49.2438817 116.556136,49.5810607 115.97306,49.7913195 C115.585188,49.9006051 115.197316,49.822544 114.828837,49.9435387 C113.684613,50.3065231 113.533343,51.8092001 113.001957,52.691291 Z" id="Path" fill="#965D7B"></path>
                        <path d="M149.941209,62.9264704 C146.968365,63.4350316 144.504621,61.1966704 143.140829,59.5637392 C142.721967,59.0678179 142.340766,58.5453039 142,58 L152.204286,59.7920728 L152.616769,59.8647244 C152.616769,59.8647244 154.493376,62.15152 149.941209,62.9264704 Z" id="Path" fill="#000000" opacity="0.1"></path>
                        <g id="Group" opacity="0.1" transform="translate(109.000000, 49.000000)" fill="#000000">
                            <path d="M1.32531646,12.9678261 C1.36781417,12.4560707 1.29234563,11.9412101 1.10506329,11.4652174 C1.10506329,11.5043478 1.07088608,11.5434783 1.05949367,11.5826087 C0.896202532,12.1069565 1.1164557,12.6508696 1.25696203,13.1947826 C1.28713827,13.1217077 1.31004039,13.045666 1.32531646,12.9678261 Z" id="Path"></path>
                            <path d="M2.22911392,6.56217391 C2.1900454,7.10326928 2.20021635,7.64694512 2.25949367,8.18608696 C2.29842907,7.64498783 2.28825837,7.1013248 2.22911392,6.56217391 Z" id="Path"></path>
                            <path d="M28.6025316,2.90347826 C28.2028587,3.72787223 27.6355663,4.45389842 26.9392405,5.03217391 C26.0620253,5.67782609 24.956962,5.85782609 23.9012658,6.12 C22.8455696,6.38217391 21.7556962,6.80086957 21.1556962,7.72434783 C20.8310617,8.31825378 20.6136207,8.96789141 20.5139241,9.64173913 C20.4150133,10.3168357 20.1539392,10.9557579 19.7544304,11.5004348 C19.3177215,12.0091304 18.5506329,12.2830435 17.9810127,11.9386957 C17.6622841,11.7166635 17.4202614,11.396021 17.2898734,11.0230435 C16.8607595,10.0173913 16.7468354,8.90608696 16.5759494,7.81826087 C16.4050633,6.73043478 16.1506329,5.61913043 15.5050633,4.74652174 C14.8594937,3.87391304 13.7164557,3.29869565 12.7025316,3.63913043 C12.0175291,3.91231697 11.4693973,4.46018668 11.1835443,5.1573913 C10.9024255,5.84848576 10.7109038,6.57473619 10.6139241,7.3173913 C10.1405063,9.97565217 9.5835443,12.6156522 8.94303797,15.2373913 C8.92525982,15.345518 8.88225435,15.4475752 8.81772152,15.5347826 C8.71605112,15.637888 8.58053794,15.6979321 8.43797468,15.7030435 C7.58734177,15.8165217 6.77088608,15.206087 5.9164557,15.2686957 C4.86455696,15.3469565 4.09367089,16.3956522 3.05696203,16.5678261 C2.39568418,16.6289378 1.73229096,16.4771823 1.15822785,16.1334783 C0.894277944,16.0164603 0.657419457,15.8430792 0.463291139,15.6247826 C0.283262628,15.8904187 0.231472012,16.2264857 0.32278481,16.5365217 C0.490053376,16.9008308 0.79038445,17.1821686 1.15822785,17.3191304 C1.73229096,17.6628345 2.39568418,17.81459 3.05696203,17.7534783 C4.09367089,17.5813043 4.86455696,16.5326087 5.9164557,16.4543478 C6.77088608,16.3917391 7.58734177,17.0021739 8.43797468,16.8886957 C8.58053794,16.8835843 8.71605112,16.8235402 8.81772152,16.7204348 C8.88225435,16.6332274 8.92525982,16.5311701 8.94303797,16.4230435 C9.58101266,13.8143478 10.1379747,11.1743478 10.6139241,8.50304348 C10.7109038,7.76038836 10.9024255,7.03413793 11.1835443,6.34304348 C11.4693973,5.64583886 12.0175291,5.09796914 12.7025316,4.82478261 C13.7164557,4.48434783 14.8556962,5.05956522 15.5050633,5.93217391 C16.1544304,6.80478261 16.4012658,7.92 16.5759494,9.00391304 C16.7506329,10.0878261 16.8607595,11.2030435 17.2898734,12.2086957 C17.4202614,12.5816732 17.6622841,12.9023157 17.9810127,13.1243478 C18.5506329,13.4647826 19.3177215,13.1947826 19.7544304,12.686087 C20.1539392,12.14141 20.4150133,11.5024879 20.5139241,10.8273913 C20.6136207,10.1535436 20.8310617,9.50390596 21.1556962,8.91 C21.7556962,7.98652174 22.8531646,7.57173913 23.9012658,7.30565217 C24.9493671,7.03956522 26.0544304,6.86347826 26.9392405,6.21782609 C27.6355663,5.6395506 28.2028587,4.9135244 28.6025316,4.08913043 C29.164557,3.08347826 29.6886076,1.98782609 29.643038,0.825652174 C29.6355653,0.676226654 29.6203538,0.527318963 29.5974684,0.379565217 C29.4142505,1.27518386 29.077318,2.12989976 28.6025316,2.90347826 Z" id="Path"></path>
                        </g>
                        <path d="M138.268223,52.1797835 C139.266208,53.9668085 139.857704,55.954731 140,58 C136.532555,56.0403312 133.271367,53.8886148 131.625206,53.1400213 C128.757072,51.8348818 118.031732,52.0308487 114,52.1523482 C114.421753,51.3935976 114.914324,50.6770407 115.471037,50.0123898 C116.392299,48.9103653 117.474924,47.9561591 118.681634,47.182628 C121.91137,45.1183032 125.842269,44.4834712 129.550964,45.4272542 C133.259658,46.3710371 136.419297,48.8102584 138.287681,52.1719449 L138.268223,52.1797835 Z" id="Path" fill="#000000" opacity="0.1"></path>
                        <path d="M151.15707,61.8478203 C149.311846,62.4172977 146.300409,61.3168211 143.177721,59.7392148 C142.745314,59.1876435 142.351785,58.6064953 142,58 L152.534275,59.9931709 C153.232468,60.4703007 153.408934,61.1513649 151.15707,61.8478203 Z" id="Path" fill="#000000" opacity="0.1"></path>
                        <path d="M127.464691,39.0180093 C127.464691,39.0180093 117.263237,38.4225763 114.39517,44.0791896 L113.932704,49.0927353 L113.155451,49.0054052 L113,52.4152514 C113,52.4152514 128.591709,51.7205796 132.139872,53.3560355 C135.688036,54.9914914 146.713379,63.2322839 151.132067,61.8429402 C155.550754,60.4535966 150.74344,59.1634918 150.74344,59.1634918 C150.74344,59.1634918 144.66143,56.5316781 144.66143,54.4675104 C144.66143,52.4033427 143.153557,41.4989801 127.464691,39.0180093 Z" id="Path" fill="#444053"></path>
                        <path d="M107,222 C107,222 113.979167,228.470414 117,227.97269 C117,227.97269 108.458333,227.275876 107,222 Z" id="Path" fill="#000000" opacity="0.1"></path>
                        <path d="M106,224 C106,224 106.694125,227.301474 108.545123,226.977645 C110.396122,226.653816 106,224 106,224 Z" id="Path" fill="#000000" opacity="0.1"></path>
                        <path d="M117,279 C117,279 107.594096,286.7856 109.180205,286.996022 C110.766314,287.206443 117,279 117,279 Z" id="Path" fill="#000000" opacity="0.1"></path>
                        <polygon id="Path" fill="#3176BB" points="129 134.984499 159 130 159 159 130.496104 157.476406"></polygon>
                        <polygon id="Path" fill="#000000" opacity="0.05" points="129 134.984499 159 130 159 159 130.496104 157.476406"></polygon>
                        <polygon id="Path" fill="#3176BB" points="159 130 195 132.748834 193.007797 157.985597 159 159"></polygon>
                        <polygon id="Path" fill="#000000" opacity="0.1" points="159 130 195 132.748834 193.007797 157.985597 159 159"></polygon>
                        <polygon id="Path" fill="#3176BB" points="170.099134 123 159 131.393347 195.100531 134 201 125.410494"></polygon>
                        <polygon id="Path" fill="#3176BB" points="118 126.351252 145.09878 123 159 131.02474 128.898932 136"></polygon>
                        <polygon id="Path" fill="#3176BB" points="165 138.534176 165 178 150.784086 176.53493 144.600341 175.901386 142.716447 175.703403 136.536643 175.0659 128 174.186858 128 136 158.343311 138.074856"></polygon>
                        <polygon id="Path" fill="#3176BB" points="195 134 195 172.2917 183.506494 174.478109 177.916777 175.541767 165 178 165 138.735249"></polygon>
                        <polygon id="Path" fill="#000000" opacity="0.05" points="195 134 195 172.2917 183.506494 174.478109 177.916777 175.541767 165 178 165 138.735249"></polygon>
                        <polygon id="Path" fill="#3176BB" points="117 143.775606 127.990802 136 165 138.371968 159.551905 147"></polygon>
                        <polygon id="Path" fill="#FFFFFF" opacity="0.1" points="117 143.775606 127.990802 136 165 138.371968 159.551905 147"></polygon>
                        <polygon id="Path" fill="#3176BB" points="194.356296 134 165 138.59318 174.554607 147 206 141.818342"></polygon>
                        <polygon id="Path" fill="#FFFFFF" opacity="0.1" points="194.356296 134 165 138.59318 174.554607 147 206 141.818342"></polygon>
                        <polygon id="Path" fill="#FFFFFF" opacity="0.1" points="183 173.879203 178 175 178 166.378165 182.683499 165"></polygon>
                        <polygon id="Path" fill="#FFFFFF" opacity="0.1" points="151 171 151 176 145 175.417758 145 171"></polygon>
                        <polygon id="Path" fill="#FFFFFF" opacity="0.1" points="143 172 143 175 137 174.339261 137 172"></polygon>
                        <path d="M161.613624,167.174672 C157.436397,172.390966 143.641834,168.786981 143.641834,168.786981 L133.391114,158.346807 L132,156.931768 L134.720055,152 C134.720055,152 135.497213,152.250382 136.795068,152.690448 C143.665149,155.034934 165.130266,162.785398 161.613624,167.174672 Z" id="Path" fill="#000000" opacity="0.1"></path>
                        <path d="M161.613624,167.174672 C157.436397,172.390966 143.641834,168.786981 143.641834,168.786981 L133.391114,158.346807 L132,156.931768 L134.720055,152 C134.720055,152 135.497213,152.250382 136.795068,152.690448 C143.665149,155.034934 165.130266,162.785398 161.613624,167.174672 Z" id="Path" fill="#EFB7B9"></path>
                        <path d="M136,151.761506 C135.408428,153.518828 133.905186,156.121339 132.450567,158 L131,156.439331 L133.836305,151 C133.836305,151 134.650729,151.276151 136,151.761506 Z" id="Path" fill="#000000" opacity="0.1"></path>
                        <path d="M102.363745,90.0674639 C102.363745,90.0674639 92.0987482,94.0042874 92.0009864,105.027393 C91.9776223,112.130704 92.3693464,119.229248 93.1741288,126.28624 C93.1741288,126.28624 90.2412727,142.722479 98.5510318,147.446667 C106.860791,152.170855 114.583979,156.107679 114.583979,156.107679 C114.583979,156.107679 127.860041,158.272932 129.490709,158.961876 C131.121377,159.65082 136.787655,150.792967 135.907799,149.316658 C135.027942,147.840349 122.940664,144.198787 121.50552,141.738273 C120.070375,139.277758 116.535306,137.620355 116.535306,137.620355 C116.535306,137.620355 112.929848,135.144093 112.785161,133.077261 C112.640473,131.010429 113.704122,129.53412 114.005229,128.648335 C114.306335,127.762549 115.397358,119.101537 115.397358,119.101537 C115.397358,119.101537 121.231786,88.3746298 102.363745,90.0674639 Z" id="Path" fill="#DCE6F2"></path>
                        <path d="M107,128 C107,128 92.9734552,129.454545 94.0600185,134 C94.0600185,134 99.3901055,129.414545 107,128 Z" id="Path" fill="#000000" opacity="0.1"></path>
                        <path d="M107,130 C107,130 98.6556348,135.603728 100.187851,135.983642 C101.720067,136.363555 107,130 107,130 Z" id="Path" fill="#000000" opacity="0.1"></path>
                        <path d="M110.9581,132 C110.9581,132 107.736859,135.158719 109.55756,134.993757 C111.378262,134.828794 110.9581,132 110.9581,132 Z" id="Path" fill="#000000" opacity="0.1"></path>
                        <path d="M255.692598,44.018889 C255.692598,44.018889 240.353395,43.1400695 242.14566,53.3712168 C242.14566,53.3712168 241.786399,55.1787451 243.510041,56 C243.510041,56 243.538298,55.2324721 245.084328,55.4972692 C245.634899,55.5853612 246.194509,55.611125 246.751457,55.574022 C247.50623,55.5261643 248.223699,55.2444273 248.793993,54.7719553 C248.793993,54.7719553 253.109153,53.0795562 254.788392,46.3713621 C254.788392,46.3713621 256.031675,44.9053837 255.999382,44.5292951 L253.407864,45.584646 C253.407864,45.584646 254.291886,47.3614731 253.593549,48.8389644 C253.593549,48.8389644 253.512816,45.6498858 253.012274,45.722801 C252.911358,45.722801 251.668075,46.340661 251.668075,46.340661 C251.668075,46.340661 253.189886,49.4337985 252.039445,51.686493 C252.039445,51.686493 252.475402,47.8718792 251.191753,46.5632441 L249.367195,47.5763809 C249.367195,47.5763809 251.14735,50.7731348 249.940397,53.3827298 C249.940397,53.3827298 250.251217,49.3800716 248.983715,47.8219899 L247.328696,49.0461969 C247.328696,49.0461969 249.003898,52.2007367 247.98263,54.3651655 C247.98263,54.3651655 247.849421,49.706271 246.969435,49.3532081 C246.969435,49.3532081 245.524321,50.5659022 245.306343,51.0647954 C245.306343,51.0647954 246.44871,53.3673792 245.738262,54.5608851 C245.738262,54.5608851 245.302306,51.4562346 244.930936,51.4408841 C244.930936,51.4408841 243.489858,53.4978589 243.340503,54.8947598 C243.410296,53.592461 243.837546,52.3302338 244.579749,51.2336515 C243.749202,51.383042 242.982939,51.7606286 242.375748,52.3197036 C242.375748,52.3197036 242.597763,50.8652381 244.934973,50.738596 C244.934973,50.738596 246.145962,49.1766767 246.444673,49.0807357 C246.444673,49.0807357 244.119573,48.896529 242.710788,49.4913631 C242.710788,49.4913631 243.950034,48.1213258 246.872556,48.7238352 L248.487209,47.4574141 C248.487209,47.4574141 245.427442,47.0736502 244.127646,47.4996282 C244.127646,47.4996282 245.6212,46.286934 248.927202,47.1695911 L250.70332,46.1602919 C250.70332,46.1602919 248.095656,45.6230224 246.541552,45.818742 C246.541552,45.818742 248.180425,44.9782989 251.224046,45.8878195 L252.495585,45.3467123 C252.495585,45.3467123 250.582221,44.9898118 250.025166,44.9322472 C249.468111,44.8746826 249.435818,44.7288523 249.435818,44.7288523 C250.646278,44.5373198 251.88893,44.67021 253.024384,45.1126163 C253.024384,45.1126163 255.74911,44.1800698 255.692598,44.018889 Z" id="Path" fill="#3176BB"></path>
                        <path d="M299.727469,96.018889 C299.727469,96.018889 284.349201,95.1400695 286.146031,105.371217 C286.146031,105.371217 285.785855,107.178745 287.513887,108 C287.513887,108 287.542216,107.232472 289.09623,107.497269 C289.648203,107.585361 290.209239,107.611125 290.767605,107.574022 C291.515411,107.522608 292.225442,107.242509 292.791061,106.775793 C292.791061,106.775793 297.121258,105.079556 298.804773,98.3713621 C298.804773,98.3713621 300.047175,96.9092214 299.998613,96.5331327 L297.400495,97.584646 C297.400495,97.584646 298.286769,99.3614731 297.5907,100.838964 C297.5907,100.838964 297.505714,97.6498858 297.007944,97.722801 C296.906771,97.722801 295.656275,98.340661 295.656275,98.340661 C295.656275,98.340661 297.186008,101.437636 296.032638,103.686493 C296.032638,103.686493 296.469705,99.8718792 295.17874,98.5632441 L293.36977,99.564868 C293.36977,99.564868 295.154458,102.761622 293.944431,105.371217 C293.944431,105.371217 294.256044,101.368559 292.985313,99.810477 L291.330126,101.038522 C291.330126,101.038522 293.005548,104.189224 291.985726,106.353653 C291.985726,106.353653 291.852177,101.694758 290.96995,101.341695 C290.96995,101.341695 289.521156,102.554389 289.298576,103.053282 C289.298576,103.053282 290.447899,105.355866 289.735642,106.549372 C289.735642,106.549372 289.298576,103.444722 288.92626,103.429371 C288.92626,103.429371 287.481512,105.486346 287.331776,106.883247 C287.404079,105.580789 287.833731,104.318801 288.578225,103.222139 C287.744512,103.371893 286.975102,103.749376 286.364564,104.308191 C286.364564,104.308191 286.591191,102.853725 288.934353,102.727083 C288.934353,102.727083 290.128193,101.165164 290.447899,101.069223 C290.447899,101.069223 288.116877,100.885016 286.704505,101.47985 C286.704505,101.47985 287.946907,100.109813 290.872825,100.73151 L292.49159,99.4650894 C292.49159,99.4650894 289.419983,99.0813254 288.120924,99.5073034 C288.120924,99.5073034 289.618282,98.2946093 292.932703,99.1772664 L294.713345,98.1679672 C294.713345,98.1679672 292.094992,97.6345353 290.536931,97.8264173 C290.536931,97.8264173 292.184024,96.9859742 295.235396,97.8954948 L296.510174,97.3543876 C296.510174,97.3543876 294.591937,96.9974871 294.029416,96.9399225 C293.466896,96.8823579 293.438567,96.7365276 293.438567,96.7365276 C294.65344,96.5448803 295.900588,96.677763 297.040319,97.1202916 C297.040319,97.1202916 299.776032,96.1800698 299.727469,96.018889 Z" id="Path" fill="#3176BB" opacity="0.1"></path>
                        <path d="M209.504975,86.8264339 C209.504975,86.8264339 212.711624,72.1956037 202.802162,72.1443228 C202.802162,72.1443228 201.156693,71.481616 200.119571,72.9963744 C200.119571,72.9963744 200.826866,73.1581064 200.346785,74.6018605 C200.180747,75.1123879 200.070071,75.6418571 200.016959,76.1797338 C199.945971,76.9129766 200.09908,77.6511357 200.453063,78.28225 C200.453063,78.28225 201.380243,82.7397421 207.416072,85.5325778 C207.416072,85.5325778 208.603449,86.9842213 208.962593,87 L208.376235,84.3215601 C208.376235,84.3215601 206.565852,84.8619817 205.283192,83.9270917 C205.283192,83.9270917 208.299275,84.4043984 208.30294,83.9270917 C208.30294,83.8284747 207.936466,82.5227845 207.936466,82.5227845 C207.936466,82.5227845 204.788452,83.4458404 202.846139,81.9429161 C202.846139,81.9429161 206.367956,83.0316486 207.80087,82.0257544 L207.141217,80.0849702 C207.141217,80.0849702 203.842949,81.2407624 201.585468,79.6194976 C201.585468,79.6194976 205.305181,80.6214472 206.968974,79.6747232 L206.071112,77.8680582 C206.071112,77.8680582 202.846139,78.9252333 200.966127,77.5643176 C200.966127,77.5643176 205.363817,78.2506925 205.840233,77.4696452 C205.840233,77.4696452 204.924048,75.8641591 204.487944,75.5643632 C204.487944,75.5643632 202.157168,76.2665168 201.13104,75.3710737 C201.13104,75.3710737 204.117805,75.4933589 204.187435,75.1541161 C204.187435,75.1541161 202.476,73.4066215 201.171352,73.0121531 C202.38716,73.3101214 203.509963,73.9436357 204.429308,74.8503755 C204.415869,74.0236501 204.179008,73.2190376 203.747666,72.5348465 C203.747666,72.5348465 205.081632,73.0082084 204.847088,75.2961247 C204.847088,75.2961247 206.129748,76.7162107 206.17006,77.0396747 C206.17006,77.0396747 206.701448,74.8345968 206.360627,73.3711193 C206.360627,73.3711193 207.460049,74.806984 206.422927,77.5090921 L207.361101,79.3039229 C207.361101,79.3039229 208.211321,76.4243042 207.995101,75.0988906 C207.995101,75.0988906 208.907622,76.7477682 207.562662,79.7772849 L208.240639,81.6667882 C208.240639,81.6667882 209.14583,79.2447527 209.204466,77.722105 C209.204466,77.722105 209.743183,79.4498762 208.412882,82.2229886 L208.72805,83.5405128 C208.72805,83.5405128 209.358385,81.7614606 209.497646,81.2328731 C209.636906,80.7042855 209.779831,80.7003408 209.779831,80.7003408 C209.774246,81.9004234 209.458267,83.0751183 208.86731,84.0927684 C208.86731,84.0927684 209.347391,86.8461574 209.504975,86.8264339 Z" id="Path" fill="#3176BB" opacity="0.1"></path>
                        <path d="M178,92.0469495 C178,92.0469495 165.999097,82.4291017 161.709128,92.8473836 C161.709128,92.8473836 160.399725,94.3008034 161.339507,96.0406944 C161.339507,96.0406944 161.787771,95.3624318 162.912364,96.4872523 C163.310699,96.8842837 163.751552,97.2293325 164.2257,97.5151782 C164.867923,97.8983057 165.609366,98.0462322 166.337262,97.9364594 C166.337262,97.9364594 170.804177,98.859065 175.947421,93.6730945 C175.947421,93.6730945 177.783732,93.0411729 177.956746,92.6704455 L175.247499,92.1606954 C175.247499,92.1606954 174.964385,94.2965906 173.568474,95.2528987 C173.568474,95.2528987 175.294685,92.2786541 174.846421,92.0638007 C174.755981,92.0174598 173.403324,91.8531601 173.403324,91.8531601 C173.403324,91.8531601 172.90001,95.5688595 170.698009,96.9717256 C170.698009,96.9717256 173.202785,93.7236483 172.892145,91.7857552 L170.835634,91.6677965 C170.835634,91.6677965 170.485673,95.6236261 168.032016,97.3256017 C168.032016,97.3256017 170.536791,93.8331814 170.391302,91.6762221 L168.354451,91.8531601 C168.354451,91.8531601 167.941576,95.6994567 165.892929,97.0981099 C165.892929,97.0981099 168.405569,92.7504889 167.890458,91.9247779 C167.890458,91.9247779 166.030554,92.2070363 165.570494,92.5356355 C165.570494,92.5356355 165.212669,95.290814 163.954383,95.9901406 C163.954383,95.9901406 165.350294,92.8937245 165.067179,92.6788711 C165.067179,92.6788711 162.735418,93.7362867 161.819228,94.9411507 C162.611772,93.7875263 163.671702,92.8755727 164.894165,92.2955053 C164.133551,91.9568098 163.297254,91.8631116 162.487693,92.0258854 C162.487693,92.0258854 163.486457,90.8210214 165.460394,92.0469495 C165.460394,92.0469495 167.308501,91.3012819 167.623073,91.3939637 C167.623073,91.3939637 165.833947,89.8899902 164.351529,89.6287959 C164.351529,89.6287959 166.136722,89.0811304 168.161776,91.3139203 L170.202559,91.0906413 C170.202559,91.0906413 167.933712,88.9842358 166.632172,88.6303597 C166.632172,88.6303597 168.531398,88.3733782 170.721602,91.0780029 L172.73486,91.1748976 C172.73486,91.1748976 170.914277,89.1864507 169.541959,88.4702728 C169.541959,88.4702728 171.346813,88.6387853 173.312885,91.2212385 L174.653746,91.4529431 C174.653746,91.4529431 173.297156,90.0290129 172.872485,89.6582856 C172.447813,89.2875582 172.506795,89.1316842 172.506795,89.1316842 C173.600713,89.6506746 174.538635,90.4849057 175.216042,91.5414121 C175.216042,91.5414121 177.948882,92.2196747 178,92.0469495 Z" id="Path" fill="#3176BB" opacity="0.1"></path>
                        <path d="M217,9.04979807 C217,9.04979807 204.999097,-0.574592078 200.709128,9.85042597 C200.709128,9.85042597 199.399725,11.3041977 200.339507,13.0445099 C200.339507,13.0445099 200.787771,12.3660831 201.912364,13.491176 C202.312785,13.8862523 202.754865,14.2298973 203.229633,14.515137 C203.871756,14.8986514 204.613292,15.0466322 205.341194,14.9365201 C205.341194,14.9365201 209.808109,15.8593491 214.951353,10.6679092 C214.951353,10.6679092 216.787664,10.0400484 216.956746,9.6650174 L214.247499,9.16357151 C214.247499,9.16357151 213.968317,11.2999839 212.568474,12.2565235 C212.568474,12.2565235 214.298617,9.28155877 213.850353,9.06665339 C213.759914,9.02030125 212.407256,8.85596184 212.407256,8.85596184 C212.407256,8.85596184 211.888213,12.5809885 209.686213,13.9757666 C209.686213,13.9757666 212.187056,10.7269028 211.880349,8.78854054 L209.823838,8.67055327 C209.823838,8.67055327 209.469945,12.6273406 207.020219,14.3255146 C207.020219,14.3255146 209.524995,10.8322486 209.379505,8.6747671 L207.346587,8.85174801 C207.346587,8.85174801 206.92978,12.7031896 204.881133,14.1021815 C204.881133,14.1021815 207.397705,9.75350785 206.882594,8.92759697 C206.882594,8.92759697 205.02269,9.20992365 204.562629,9.53860247 C204.562629,9.53860247 204.204804,12.294448 202.946518,12.9939439 C202.946518,12.9939439 204.342429,9.89677811 204.059315,9.67765889 C204.059315,9.67765889 201.727554,10.7395443 200.811364,11.9447 C201.60271,10.7895664 202.662976,9.8771031 203.886301,9.2984141 C203.124905,8.9571171 202.286657,8.86333062 201.475896,9.02872891 C201.475896,9.02872891 202.478593,7.82357323 204.452529,9.04979807 C204.452529,9.04979807 206.300637,8.29973614 206.615208,8.39665425 C206.615208,8.39665425 204.826083,6.89231656 203.343665,6.62684521 C203.343665,6.62684521 205.124926,6.083261 207.14998,8.31237763 L209.190763,8.08904458 C209.190763,8.08904458 206.925848,5.98212905 205.620376,5.62395341 C205.620376,5.62395341 207.519601,5.37112355 209.713738,8.07640309 L211.726995,8.16910737 C211.726995,8.16910737 209.906413,6.18017911 208.530162,5.46804166 C208.530162,5.46804166 210.338948,5.63659491 212.30502,8.21967335 L213.641949,8.45143406 C213.641949,8.45143406 212.281428,7.04401448 211.856756,6.68162501 C211.432084,6.31923554 211.491067,6.15910996 211.491067,6.15910996 C212.585314,6.67765587 213.523369,7.51220692 214.200314,8.56942133 C214.200314,8.56942133 216.933154,9.20992365 217,9.04979807 Z" id="Path" fill="#3176BB" opacity="0.1"></path>
                        <path d="M263,20.5232173 C263,20.5232173 258.153923,6.89005086 249.013903,12.2474209 C249.013903,12.2474209 247.146971,12.6249664 247,14.4032055 C247,14.4032055 247.734856,14.1464746 248.060576,15.5811473 C248.181589,16.0914829 248.364195,16.5868309 248.604767,17.05735 C248.933063,17.690575 249.46817,18.2058001 250.130089,18.5260019 C250.130089,18.5260019 253.355511,21.6407519 260.410129,20.6100528 C260.410129,20.6100528 262.273088,21.1461673 262.614697,20.9611701 L260.6286,19.1074219 C260.6286,19.1074219 259.25422,20.5307683 257.577954,20.4741364 C257.577954,20.4741364 260.608739,19.2206855 260.358491,18.8167119 C260.306852,18.7374273 259.270109,17.8803991 259.270109,17.8803991 C259.270109,17.8803991 256.862959,20.345771 254.281033,20.1834264 C254.281033,20.1834264 258.098312,19.1489519 258.876862,17.5406082 L257.232373,16.3362382 C257.232373,16.3362382 254.825223,19.0621164 251.873883,18.9790564 C251.873883,18.9790564 255.846077,17.7671355 256.851043,16.0908337 L255.063555,15.1129909 C255.063555,15.1129909 252.680238,17.729381 250.209533,17.646321 C250.209533,17.646321 254.626614,15.8076746 254.63853,14.9166673 C254.63853,14.9166673 252.942403,14.1124955 252.382324,14.1049446 C252.382324,14.1049446 250.610725,15.9435909 249.204568,15.7774709 C249.204568,15.7774709 252.016882,14.2484118 251.897716,13.9350491 C251.897716,13.9350491 249.395233,13.4480155 247.985104,13.8406627 C249.26052,13.4185894 250.629914,13.3209717 251.957299,13.5575036 C251.504024,12.8926397 250.856615,12.3678268 250.09434,12.0473218 C250.09434,12.0473218 251.571996,11.7037554 252.561072,13.6820936 C252.561072,13.6820936 254.499503,14.1389237 254.706058,14.3767773 C254.706058,14.3767773 254.02284,12.2965018 252.930487,11.2922309 C252.930487,11.2922309 254.706058,11.8623245 255.190665,14.6221818 L257.00993,15.5660455 C257.00993,15.5660455 256.259186,12.7684336 255.353525,11.7905909 C255.353525,11.7905909 257.073486,12.6362927 257.446872,15.8265518 L259.075472,16.9931673 C259.075472,16.9931673 258.622642,14.5315709 257.85998,13.2554673 C257.85998,13.2554673 259.274081,14.3654509 259.528302,17.3442846 L260.517378,18.2428428 C260.517378,18.2428428 260.151936,16.4532773 260.000993,15.9473664 C259.85005,15.4414555 259.973188,15.4074764 259.973188,15.4074764 C260.60465,16.3868819 260.93872,17.5132413 260.938431,18.6619182 C260.938431,18.6619182 262.860973,20.6213792 263,20.5232173 Z" id="Path" fill="#3176BB" opacity="0.1"></path>
                        <path d="M230.728556,21.0885675 C230.728556,21.0885675 215.842808,19.5366212 217.072159,29.4256816 C217.072159,29.4256816 216.628336,31.1394421 218.25045,32 C218.25045,32 218.31722,31.2644805 219.821506,31.5954642 C220.353125,31.7025693 220.895956,31.75315 221.439692,31.7462458 C222.174156,31.733826 222.884275,31.4975563 223.462426,31.0732454 C223.462426,31.0732454 227.747479,29.650015 229.746647,23.3061589 C229.746647,23.3061589 231.027057,21.9638357 230.999563,21.5997536 L228.426961,22.4897322 C228.426961,22.4897322 229.212488,24.229236 228.426961,25.6120127 C228.426961,25.6120127 228.509441,22.555929 228.034197,22.6037378 C227.936006,22.6037378 226.694872,23.1333118 226.694872,23.1333118 C226.694872,23.1333118 228.014559,26.16733 226.78128,28.2819487 C226.78128,28.2819487 227.401847,24.6484821 226.219628,23.3392573 L224.393276,24.2218808 C224.393276,24.2218808 225.964332,27.3662268 224.648573,29.8081517 C224.648573,29.8081517 225.159166,25.9908053 224.008368,24.4425366 L222.339122,25.545816 C222.339122,25.545816 223.800203,28.6386757 222.696537,30.665032 C222.696537,30.665032 222.810438,26.2004284 221.973851,25.8216358 C221.973851,25.8216358 220.504915,26.9249151 220.265329,27.3809372 C220.265329,27.3809372 221.259021,29.6242719 220.508842,30.7459392 C220.508842,30.7459392 220.245691,27.7560522 219.900058,27.7266314 C219.900058,27.7266314 218.391845,29.6279495 218.171898,30.9702726 C218.308138,29.7257834 218.790224,28.5364337 219.570137,27.5206859 C218.755115,27.6261445 217.990694,27.9520694 217.370659,28.4584734 C217.370659,28.4584734 217.661305,27.0793742 219.939335,27.0646638 C219.939335,27.0646638 221.176541,25.6267231 221.51039,25.5494935 C221.51039,25.5494935 219.259853,25.2663185 217.857687,25.7701494 C217.857687,25.7701494 219.134169,24.512411 221.938503,25.2442529 L223.592038,24.1078752 C223.592038,24.1078752 220.603106,23.5415252 219.338406,23.909285 C219.338406,23.909285 220.854474,22.8060056 224.020151,23.817345 L225.799371,22.931044 C225.799371,22.931044 223.28961,22.2984971 221.769614,22.4125027 C221.769614,22.4125027 223.407439,21.6769831 226.317819,22.6956777 L227.582518,22.235978 C227.582518,22.235978 225.740456,21.805699 225.198442,21.7247919 C224.656428,21.6438847 224.63679,21.504136 224.63679,21.504136 C225.824169,21.3765734 227.026066,21.5598936 228.108822,22.0337101 C228.108822,22.0337101 230.75605,21.2430266 230.728556,21.0885675 Z" id="Path" fill="#3176BB" opacity="0.1"></path>
                        <path d="M360.739975,136.088806 C360.739975,136.088806 345.841222,134.535323 347.072296,144.423132 C347.072296,144.423132 346.627851,146.13859 348.25224,147 C348.25224,147 348.319103,146.263752 349.825498,146.591382 C350.357247,146.702226 350.901294,146.752899 351.445954,146.742313 C352.181812,146.731771 352.893552,146.495059 353.471523,146.068646 C353.471523,146.068646 357.762585,144.644007 359.74489,138.29755 C359.74489,138.29755 361.027095,136.950216 360.999563,136.589455 L358.423353,137.476633 C358.423353,137.476633 359.209982,139.221541 358.423353,140.605687 C358.423353,140.605687 358.505949,137.542896 358.030038,137.594433 C357.93171,137.594433 356.688836,138.12085 356.688836,138.12085 C356.688836,138.12085 358.010373,141.157873 356.775365,143.274586 C356.775365,143.274586 357.396802,139.641202 356.212925,138.327 L354.384013,139.214178 C354.384013,139.214178 355.957271,142.361638 354.6436,144.805981 C354.6436,144.805981 355.150976,140.984855 353.998565,139.431371 L352.326978,140.535743 C352.326978,140.535743 353.790108,143.631666 352.684894,145.656348 C352.684894,145.656348 352.798955,141.187323 351.961196,140.811836 C351.961196,140.811836 350.494132,141.916208 350.250277,142.372682 C350.250277,142.372682 351.249296,144.618238 350.494132,145.741016 C350.494132,145.741016 350.230612,142.748168 349.884495,142.718718 C349.884495,142.718718 348.374167,144.621919 348.153911,145.965572 C348.290343,144.71985 348.773104,143.529323 349.554111,142.512569 C348.737364,142.616247 347.971317,142.94273 347.35155,143.451285 C347.35155,143.451285 347.642602,142.067139 349.923826,142.052414 C349.923826,142.052414 351.1667,140.613049 351.497084,140.539425 C351.497084,140.539425 349.243392,140.252288 347.83926,140.756618 C347.83926,140.756618 349.117532,139.501315 351.92973,140.233882 L353.581651,139.096379 C353.581651,139.096379 350.623926,138.573643 349.337788,138.934404 C349.337788,138.934404 350.855982,137.830032 354.026097,138.838692 L355.807811,137.955194 C355.807811,137.955194 353.294532,137.322021 351.772405,137.43614 C351.772405,137.43614 353.412526,136.699892 356.326987,137.719595 L357.593459,137.255759 C357.593459,137.255759 355.748814,136.825054 355.20604,136.747748 C354.663266,136.670442 354.6436,136.526873 354.6436,136.526873 C355.832307,136.396867 357.036213,136.579144 358.120501,137.053291 C358.120501,137.053291 360.779307,136.247099 360.739975,136.088806 Z" id="Path" fill="#3176BB" opacity="0.1"></path>
                        <path d="M383.755304,150.08833 C383.755304,150.08833 368.839929,148.538461 370.072377,158.42302 C370.072377,158.42302 369.631373,160.138552 371.253637,161 C371.253637,161 371.320575,160.26372 372.82865,160.595046 C373.360071,160.703165 373.90323,160.752588 374.446976,160.742302 C375.17992,160.728278 375.888412,160.493273 376.466931,160.072287 C376.466931,160.072287 380.758842,158.647585 382.743358,152.29717 C382.743358,152.29717 384.030932,150.953459 383.999431,150.589 L381.420347,151.476218 C381.420347,151.476218 382.207854,153.221202 381.420347,154.605408 C381.420347,154.605408 381.503035,151.546164 381.026594,151.594023 C380.928156,151.594023 379.683895,152.120463 379.683895,152.120463 C379.683895,152.120463 381.006906,155.157618 379.770521,157.274423 C379.770521,157.274423 380.392651,153.640881 379.207454,152.330303 L377.376501,153.213839 C377.376501,153.213839 378.951514,156.361436 377.636378,158.805886 C377.636378,158.805886 378.14432,154.984592 376.990622,153.434723 L375.317171,154.539143 C375.317171,154.539143 376.781933,157.6352 375.679424,159.663652 C375.679424,159.663652 375.789675,155.190751 374.95098,154.815248 C374.95098,154.815248 373.482281,155.919668 373.238154,156.376161 C373.238154,156.376161 374.238287,158.621816 373.482281,159.744643 C373.482281,159.744643 373.218466,156.751664 372.871963,156.722213 C372.871963,156.722213 371.35995,158.625497 371.143386,159.969208 C371.279701,158.723979 371.761547,157.533637 372.54121,156.516055 C371.724135,156.621622 370.957789,156.947884 370.336192,157.454812 C370.336192,157.454812 370.631507,156.070605 372.915276,156.059561 C372.915276,156.059561 374.155599,154.620134 374.490289,154.542824 C374.490289,154.542824 372.234083,154.259356 370.828383,154.763708 C370.828383,154.763708 372.108082,153.504669 374.923418,154.237268 L376.577182,153.099715 C376.577182,153.099715 373.616157,152.576957 372.328583,152.937734 C372.328583,152.937734 373.848471,151.833314 377.022123,152.845699 L378.805825,151.958481 C378.805825,151.958481 376.289742,151.32528 374.765916,151.439404 C374.765916,151.439404 376.407868,150.703124 379.32558,151.722872 L380.593465,151.262697 C380.593465,151.262697 378.746762,150.831973 378.20732,150.750982 C377.667878,150.669991 377.640315,150.530098 377.640315,150.530098 C378.830686,150.402404 380.035611,150.585913 381.121095,151.06022 C381.121095,151.06022 383.79468,150.24663 383.755304,150.08833 Z" id="Path" fill="#3176BB" opacity="0.1"></path>
                        <path d="M333,33.0469495 C333,33.0469495 320.999097,23.4291017 316.709128,33.8473836 C316.709128,33.8473836 315.399725,35.3008034 316.339507,37.0406944 C316.339507,37.0406944 316.787771,36.3624318 317.912364,37.4872523 C318.310699,37.8842837 318.751552,38.2293325 319.2257,38.5151782 C319.868022,38.8980123 320.609373,39.0459204 321.337262,38.9364594 C321.337262,38.9364594 325.804177,39.859065 330.951353,34.6730945 C330.951353,34.6730945 332.783732,34.0411729 332.956746,33.6704455 L330.255364,33.1480569 C330.255364,33.1480569 329.972249,35.2839521 328.576338,36.2402603 C328.576338,36.2402603 330.302549,33.2660156 329.854285,33.0511623 C329.763846,33.0048213 328.41512,32.8405217 328.41512,32.8405217 C328.41512,32.8405217 327.907874,36.5562211 325.705873,37.9590872 C325.705873,37.9590872 328.210649,34.7110098 327.90001,32.7731167 L325.843498,32.655158 C325.843498,32.655158 325.493538,36.6109876 323.03988,38.3129633 C323.03988,38.3129633 325.548588,34.8205429 325.399166,32.6635836 L323.362316,32.8405217 C323.362316,32.8405217 322.969101,36.6868182 320.900794,38.0854715 C320.900794,38.0854715 323.417366,33.7378505 322.898323,32.9121395 C322.898323,32.9121395 321.038419,33.1943978 320.578358,33.5229971 C320.578358,33.5229971 320.224465,36.2781756 318.966179,36.9775022 C318.966179,36.9775022 320.358158,33.881086 320.075044,33.6662327 C320.075044,33.6662327 317.743282,34.7236483 316.827093,35.9285122 C317.619636,34.7748878 318.679566,33.8629343 319.902029,33.2828669 C319.141415,32.9441714 318.305119,32.8504731 317.495557,33.013247 C317.495557,33.013247 318.498254,31.808383 320.47219,33.034311 C320.47219,33.034311 322.316365,32.2886435 322.630937,32.3813253 C322.630937,32.3813253 320.841812,30.8773517 319.359393,30.6161575 C319.359393,30.6161575 321.144587,30.068492 323.169641,32.3012819 L325.210423,32.0780029 C325.210423,32.0780029 322.945508,29.9715974 321.640037,29.6177212 C321.640037,29.6177212 323.539262,29.3607398 325.729466,32.0653645 L327.746656,32.1622591 C327.746656,32.1622591 325.922141,30.1738123 324.549823,29.4576344 C324.549823,29.4576344 326.358609,29.6261469 328.320749,32.2086 L329.66161,32.4403047 C329.66161,32.4403047 328.30502,31.0163745 327.880349,30.6456471 C327.455677,30.2749198 327.518592,30.1527482 327.518592,30.1527482 C328.610959,30.672585 329.547414,31.5067217 330.223907,32.5624762 C330.223907,32.5624762 332.948882,33.2196747 333,33.0469495 Z" id="Path" fill="#3176BB" opacity="0.1"></path>
                        <path d="M343,97.5482301 C343,97.5482301 338.739813,84.2645913 329.158441,89.033356 C329.158441,89.033356 327.238927,89.2980859 327,91.017017 C327,91.017017 327.761326,90.8030572 328.024551,92.1919826 C328.122158,92.6909623 328.285273,93.1778639 328.510504,93.6425574 C328.810878,94.2674576 329.33144,94.7871179 329.99266,95.1221437 C329.99266,95.1221437 333.127056,98.2408796 340.359656,97.5446037 C340.359656,97.5446037 342.230575,98.1320865 342.58694,97.9725232 L340.671476,96.1085346 C340.671476,96.1085346 339.201468,97.4213048 337.500633,97.2980059 C337.500633,97.2980059 340.643128,96.2100748 340.400152,95.8220461 C340.351557,95.7422645 339.339155,94.875546 339.339155,94.875546 C339.339155,94.875546 336.771703,97.1456956 334.147558,96.8809657 C334.147558,96.8809657 338.087826,96.0468852 338.954442,94.5455402 L337.334599,93.3198045 C337.334599,93.3198045 334.750949,95.8365518 331.75019,95.6407242 C331.75019,95.6407242 335.832194,94.6362012 336.957985,93.0732068 L335.184257,92.0614309 C335.184257,92.0614309 332.612756,94.4730115 330.118198,94.2916897 C330.118198,94.2916897 334.706403,92.7069367 334.763098,91.854724 C334.763098,91.854724 333.070362,91.0133906 332.499367,90.9843791 C332.499367,90.9843791 330.6082,92.6742987 329.17059,92.4567125 C329.17059,92.4567125 332.110605,91.1040515 332.005315,90.7994308 C332.005315,90.7994308 329.47836,90.2300802 328.024551,90.5455802 C329.341269,90.1959295 330.737026,90.1596823 332.074158,90.4404135 C331.645863,89.7842311 331.01235,89.2547384 330.251835,88.91731 C330.251835,88.91731 331.774487,88.6453272 332.6816,90.585471 C332.6816,90.585471 334.629461,91.1004251 334.831941,91.3397699 C334.831941,91.3397699 334.236649,89.3125916 333.171602,88.3080686 C333.171602,88.3080686 334.95343,88.9245629 335.313845,91.5936205 L337.11997,92.5763849 C337.11997,92.5763849 336.488231,89.8565572 335.613516,88.8991778 C335.613516,88.8991778 337.32245,89.780402 337.553278,92.8556206 L339.173121,94.0414655 C339.173121,94.0414655 338.828904,91.6625228 338.116173,90.4150285 C338.116173,90.4150285 339.505189,91.539224 339.618578,94.4041092 L340.582384,95.3107185 C340.582384,95.3107185 340.298912,93.5772816 340.177423,93.0840861 C340.055935,92.5908907 340.177423,92.5219884 340.177423,92.5219884 C340.776678,93.4865919 341.064139,94.5815753 341.007593,95.6842415 C341.007593,95.6842415 342.854214,97.6352646 343,97.5482301 Z" id="Path" fill="#3176BB" opacity="0.1"></path>
                        <path d="M251,130.905747 C251,130.905747 242.936023,117.56036 235.448325,125.547686 C235.448325,125.547686 233.735273,126.377107 234.035254,128.346982 C234.035254,128.346982 234.68653,127.890801 235.357541,129.342288 C235.598653,129.856679 235.898185,130.338488 236.249592,130.777186 C236.720224,131.375957 237.365119,131.795612 238.085005,131.971553 C238.085005,131.971553 241.972924,134.492993 248.525152,131.639784 C248.525152,131.639784 250.455297,131.747609 250.73949,131.469753 L248.371214,129.976795 C248.371214,129.976795 247.396274,131.842993 245.766112,132.195497 C245.766112,132.195497 248.379109,130.121944 248.027814,129.74041 C247.960713,129.665762 246.744999,129.010519 246.744999,129.010519 C246.744999,129.010519 245.035893,132.236968 242.501839,132.705591 C242.501839,132.705591 245.931891,130.652773 246.287132,128.753399 L244.396459,127.87836 C244.396459,127.87836 242.750508,131.382664 239.884894,132.025465 C239.884894,132.025465 243.397836,129.748704 243.970169,127.708328 L241.996607,127.111145 C241.996607,127.111145 240.33092,130.49933 237.942909,131.017719 C237.942909,131.017719 241.747938,127.957155 241.53874,127.00332 C241.53874,127.00332 239.69938,126.567874 239.170465,126.700581 C239.170465,126.700581 237.919226,129.101756 236.506155,129.275934 C236.506155,129.275934 238.842853,126.945261 238.649444,126.638375 C238.649444,126.638375 236.111442,126.742053 234.848362,127.509267 C235.975053,126.742361 237.273373,126.2991 238.61392,126.223664 C238.013733,125.626828 237.260471,125.227511 236.446948,125.074916 C236.446948,125.074916 237.785024,124.340878 239.209936,126.207076 C239.209936,126.207076 241.183499,126.207076 241.45585,126.414431 C241.45585,126.414431 240.271713,124.340878 238.973108,123.56537 C238.973108,123.56537 240.828257,123.731254 241.980818,126.555433 L243.974117,127.111145 C243.974117,127.111145 242.549204,124.311849 241.440062,123.511457 C241.440062,123.511457 243.307052,123.984227 244.46356,127.297765 L246.326603,128.127186 C246.326603,128.127186 245.276668,125.618187 244.222785,124.444556 C244.222785,124.444556 245.86479,125.273977 246.847624,128.388454 L248.031762,129.105903 C248.031762,129.105903 247.242336,127.285323 246.962091,126.783524 C246.681845,126.281724 246.792364,126.165605 246.792364,126.165605 C247.646499,127.052039 248.24918,128.170575 248.533047,129.3962 C248.533047,129.3962 250.893428,131.046748 251,130.905747 Z" id="Path" fill="#3176BB" opacity="0.1"></path>
                        <path d="M304,65.1954855 C304,65.1954855 296.289659,51.6726247 288.523762,59.3681594 C288.523762,59.3681594 286.777724,60.1517347 287.023757,62.106549 C287.023757,62.106549 287.686457,61.6693965 288.32138,63.1334452 C288.548424,63.6538753 288.834874,64.1440368 289.174557,64.5933697 C289.63025,65.2015375 290.266313,65.6364313 290.984087,65.830594 C290.984087,65.830594 294.813464,68.4617575 301.484119,65.830594 C301.484119,65.830594 303.420633,65.9996813 303.714285,65.731616 L301.384913,64.1727135 C301.384913,64.1727135 300.353163,65.9914331 298.702365,66.292491 C298.702365,66.292491 301.388881,64.30056 301.051578,63.9252687 C300.980149,63.8469111 299.781733,63.1540656 299.781733,63.1540656 C299.781733,63.1540656 297.968235,66.3089874 295.41664,66.6925269 C295.41664,66.6925269 298.924587,64.7624571 299.333319,62.8901244 L297.460297,61.9745785 C297.460297,61.9745785 295.702355,65.4099377 292.801553,65.9584405 C292.801553,65.9584405 296.40077,63.8097944 297.035693,61.8013671 L295.075369,61.1415141 C295.075369,61.1415141 293.297586,64.4407788 290.88488,64.8944276 C290.88488,64.8944276 294.797591,61.9745785 294.61505,61.0219158 C294.61505,61.0219158 292.781711,60.5270261 292.234091,60.6425004 C292.234091,60.6425004 290.904721,62.9891023 289.480114,63.1169488 C289.480114,63.1169488 291.896788,60.881697 291.714248,60.5682669 C291.714248,60.5682669 289.158684,60.5888873 287.868998,61.3106014 C289.024306,60.58638 290.341596,60.1883284 291.690438,60.1558588 C291.103889,59.5428021 290.357664,59.1213518 289.543606,58.9433791 C289.543606,58.9433791 290.912658,58.2546576 292.321392,60.1558588 C292.321392,60.1558588 294.305526,60.2259682 294.571399,60.4362963 C294.571399,60.4362963 293.44838,58.3742559 292.162662,57.5246953 C292.162662,57.5246953 294.01981,57.7473957 295.095211,60.5930114 L297.079344,61.2116235 C297.079344,61.2116235 295.734101,58.3825041 294.63886,57.5494398 C294.63886,57.5494398 296.503945,58.0814462 297.56744,61.4095794 L299.412684,62.3045049 C299.412684,62.3045049 298.432522,59.7764434 297.428551,58.5928322 C297.428551,58.5928322 299.051572,59.4712614 299.952368,62.5973147 L301.11507,63.3478974 C301.11507,63.3478974 300.369036,61.5126814 300.107131,61.0054195 C299.845225,60.4981575 299.956337,60.3868074 299.956337,60.3868074 C300.788156,61.2954279 301.361005,62.4261477 301.611104,63.6530793 C301.611104,63.6530793 303.88492,65.3315802 304,65.1954855 Z" id="Path" fill="#3176BB"></path>
                        <path d="M254.998162,92.6996717 C254.998162,92.6996717 255.37066,78.1469751 245.510637,80.1981032 C245.510637,80.1981032 243.744996,79.919272 243,81.5769807 C243,81.5769807 243.744996,81.5769807 243.536397,83.0475288 C243.468158,83.5718862 243.460656,84.1026806 243.514047,84.6288455 C243.581386,85.3425291 243.87591,86.013653 244.352168,86.5386482 C244.352168,86.5386482 246.128984,90.5645123 252.688674,91.931931 C252.688674,91.931931 254.145141,93.0587146 254.510189,92.997601 L253.392695,90.5836103 C253.392695,90.5836103 251.697829,91.477398 250.241362,90.8700807 C250.241362,90.8700807 253.333096,90.6829201 253.247421,90.2169282 C253.247421,90.1214381 252.606724,88.960278 252.606724,88.960278 C252.606724,88.960278 249.64909,90.5072182 247.432727,89.4912032 C247.432727,89.4912032 251.157707,89.7776736 252.375776,88.5210234 L251.336506,86.8289382 C251.336506,86.8289382 248.289472,88.6165135 245.719236,87.5623024 C245.719236,87.5623024 249.61184,87.7227259 251.086932,86.4737149 L249.846514,84.9458727 C249.846514,84.9458727 246.840455,86.6341383 244.709766,85.7403506 C244.709766,85.7403506 249.224442,85.4615195 249.55224,84.6173867 C249.55224,84.6173867 248.330447,83.2919836 247.838749,83.0895445 C247.838749,83.0895445 245.655911,84.2354261 244.463917,83.61665 C244.463917,83.61665 247.443902,83.1048229 247.462526,82.764878 C247.462526,82.764878 245.424962,81.4700318 244.050444,81.3745416 C245.317905,81.3977775 246.557289,81.761259 247.645051,82.4287527 C247.47534,81.6480261 247.086939,80.9351273 246.527556,80.3776246 C246.527556,80.3776246 247.946774,80.5418677 248.140473,82.74578 C248.140473,82.74578 249.69379,83.8229087 249.794364,84.1208379 C249.794364,84.1208379 249.902389,81.9169256 249.280317,80.6029814 C249.280317,80.6029814 250.65111,81.729765 250.137062,84.5104377 L251.414731,86.0153622 C251.414731,86.0153622 251.705279,83.1048229 251.239657,81.894008 C251.239657,81.894008 252.46145,83.2652463 251.709004,86.4202404 L252.740824,88.0664904 C252.740824,88.0664904 253.180371,85.5799272 252.945698,84.1170183 C252.945698,84.1170183 253.809893,85.6448605 253.020197,88.5515802 L253.586394,89.7356579 C253.586394,89.7356579 253.873218,87.9137061 253.910467,87.382781 C253.947717,86.8518558 254.089267,86.8174794 254.089267,86.8174794 C254.3135,87.9569034 254.224514,89.1378089 253.832243,90.228387 C253.832243,90.228387 254.834263,92.7493266 254.998162,92.6996717 Z" id="Path" fill="#3176BB"></path>
                        <ellipse id="Oval" fill="#3176BB" opacity="0.1" cx="272.5" cy="280.5" rx="10.5" ry="1.5"></ellipse>
                        <ellipse id="Oval" fill="#3176BB" opacity="0.1" cx="233.5" cy="307.5" rx="10.5" ry="1.5"></ellipse>
                        <ellipse id="Oval" fill="#3176BB" opacity="0.1" cx="35.5" cy="293.5" rx="10.5" ry="1.5"></ellipse>
                        <ellipse id="Oval" fill="#3176BB" opacity="0.1" cx="313.5" cy="305.5" rx="10.5" ry="1.5"></ellipse>
                        <ellipse id="Oval" fill="#3176BB" cx="325.5" cy="282.5" rx="15.5" ry="2.5"></ellipse>
                        <path d="M331.461155,278.48586 C332.174828,277.882968 332.694361,277.067843 332.950226,276.14957 C333.144622,275.219904 332.763606,274.108347 331.912153,273.768817 C330.955726,273.388866 329.933205,274.07601 329.155622,274.771239 C328.378039,275.466467 327.495482,276.262746 326.480736,276.117233 C327.540304,275.116525 328.018283,273.611944 327.740421,272.152006 C327.696368,271.854562 327.575425,271.575145 327.390508,271.343601 C326.857864,270.753466 325.897549,271.008113 325.259931,271.472946 C323.238215,272.952327 322.674468,275.805997 322.662804,278.376726 C322.460633,277.451102 322.631701,276.485058 322.627813,275.547308 C322.623925,274.609558 322.37121,273.526295 321.597515,273.033168 C321.122612,272.757872 320.585993,272.6184 320.04235,272.628965 C319.132578,272.596629 318.117832,272.689596 317.499653,273.380782 C316.72207,274.237691 316.92813,275.680695 317.596851,276.614402 C318.265573,277.54811 319.288094,278.150372 320.228969,278.80518 C320.981995,279.272691 321.624933,279.90935 322.11072,280.668554 C322.166079,280.774303 322.211643,280.885285 322.246797,281 L327.94648,281 C329.222469,280.331861 330.40491,279.48603 331.461155,278.48586 Z" id="Path" fill="#3176BB"></path>
                        <path d="M29,285.145217 C29,285.145217 35.1756986,284.967086 37.0465129,283.716383 C38.9173271,282.46568 46.5534678,280.976207 47.0161423,282.981122 C47.4788168,284.986036 56.3018182,292.945055 49.3254915,292.998115 C42.3491649,293.051176 33.1157913,291.974813 31.2570469,290.90603 C29.3983024,289.837248 29,285.145217 29,285.145217 Z" id="Path" fill="#A8A8A8"></path>
                        <path d="M49.4508607,292.295552 C42.4715667,292.349593 33.234266,291.253331 31.3747309,290.164788 C29.9579423,289.338731 29.3944468,286.370329 29.2052734,285 L29,285 C29,285 29.4024968,289.78264 31.2499569,290.867322 C33.0974171,291.952005 42.3467928,293.052128 49.3260867,292.998087 C51.3385705,292.998087 52.0348899,292.295552 51.9986652,291.276491 C51.7169175,291.897964 50.9481486,292.283972 49.4508607,292.295552 Z" id="Path" fill="#000000" opacity="0.2"></path>
                    </g>
                </g>
            </g>
        </g>
    </g>
</svg>